<svg xmlns="http://www.w3.org/2000/svg">
    <symbol id="icon-check" viewBox="0 0 20 20">
        <title>check</title>
        <path d="M7.984,15L4,11,6,9l2,2,6-6,2,2Z"/>
    </symbol>

    <symbol id="icon-search" viewBox="0 0 24 24">
        <title>search</title>
        <path d="M19.975,18.585l-3.398-3.399c0.875-1.168,1.399-2.615,1.399-4.187c0-3.865-3.133-6.998-6.997-6.998
	c-3.864,0-6.997,3.133-6.997,6.998c0,3.866,3.133,6.999,6.997,6.999c1.571,0,3.016-0.524,4.184-1.399l3.398,3.399L19.975,18.585z
	 M10.979,15.999c-2.756,0-4.998-2.243-4.998-5c0-2.756,2.242-4.998,4.998-4.998c2.756,0,4.998,2.242,4.998,4.998
	C15.977,13.756,13.735,15.999,10.979,15.999z"/>
    </symbol>

    <symbol id="icon-user" viewBox="0 0 24 24">
        <title>user</title>
        <path class="st0" d="M5.979,20h-2c0-3.237,1.926-6.018,4.691-7.277C7.64,11.806,6.979,10.486,6.979,9c0-2.762,2.239-5,5-5
	s5,2.238,5,5c0,1.486-0.661,2.807-1.691,3.723c2.765,1.259,4.691,4.041,4.691,7.277h-2H5.979z M11.979,6c-1.657,0-3,1.343-3,3
	c0,1.657,1.343,3,3,3s3-1.343,3-3C14.979,7.343,13.636,6,11.979,6z M11.979,14c-2.609,0-4.806,1.675-5.633,4h11.265
	C16.785,15.675,14.588,14,11.979,14z"/>
    </symbol>

    <symbol id="icon-basket" viewBox="0 0 36 36">
        <title>basket</title>
        <path d="M27.965,15L22.429,4.508l-2.598,1.486L24.965,15h-14l5.133-8.989L13.5,4.49L7.965,15c-1.566,0-3.411,0-5,0v2.96h2L7.465,33
	h21l2.5-15.04h2V15C31.376,15,29.529,15,27.965,15z M25.923,30H10.006l-2-12.04c4.452,0,15.458,0,20.188,0L25.923,30z"/>
    </symbol>

    <symbol id="icon-heart" viewBox="0 0 24 24">
        <title>heart</title>
        <path d="M12.365,6.807c-0.098,0.12-0.246,0.182-0.392,0.182c-0.144,0-0.287-0.058-0.383-0.176C8.048,2.48,1.795,4.638,1.987,9.969
	c0.153,4.242,3.16,6.345,6.7,9.329c1.888,1.591,4.713,1.601,6.606-0.009c3.502-2.979,6.47-5.068,6.674-9.194
	C22.235,4.645,15.898,2.456,12.365,6.807z M13.971,17.843c-1.134,0.964-2.824,0.967-3.987-0.013
	c-3.593-3.028-5.879-4.634-5.998-7.928c-0.126-3.487,3.694-4.76,6.035-1.896c0.473,0.578,1.185,0.91,1.953,0.91
	c0.774,0,1.491-0.336,1.966-0.921c2.289-2.819,6.21-1.619,6.031,2.008C19.81,13.23,17.435,14.895,13.971,17.843z"/>
    </symbol>
</svg>
