<?xml version="1.0" encoding="utf-8"?>
<!-- Generator: Adobe Illustrator 16.0.0, SVG Export Plug-In . SVG Version: 6.00 Build 0)  -->
<!DOCTYPE svg PUBLIC "-//W3C//DTD SVG 1.1//EN" "http://www.w3.org/Graphics/SVG/1.1/DTD/svg11.dtd">
<svg version="1.1" id="Layer_1" xmlns="http://www.w3.org/2000/svg" xmlns:xlink="http://www.w3.org/1999/xlink" x="0px" y="0px"
	 width="485.77px" height="87.474px" viewBox="0 0 485.77 87.474" enable-background="new 0 0 485.77 87.474" xml:space="preserve">
<g>
	<g>
		<path fill="#131313" d="M65.334,55.398H28.023L21.54,70.415c-1.603,3.712-2.399,6.49-2.399,8.328c0,1.462,0.69,2.734,2.081,3.842
			c1.391,1.109,4.39,3.241,8.994,3.576v1.177H0V86.23c4.006-0.711,6.585-3.126,7.763-4.261c2.398-2.268,6.373-6.892,9.298-13.844
			L46.417,0.05L56.469,0l28.99,69.066c2.682,6.408,5.107,10.567,7.292,12.471c2.19,1.9,5.237,4.233,9.146,4.46v1.34H64.133v-1.223
			c3.813-0.179,6.384-2.198,7.713-3.281c1.352-1.075,2.022-2.397,2.022-3.96c0-2.054-0.947-5.32-2.821-9.807L65.334,55.398z
			 M63.166,50.179L46.988,11.515L30.264,50.179H63.166z"/>
	</g>
	<g>
		<path fill="#131313" d="M449.209,55.398H411.9l-6.482,15.017c-1.607,3.712-2.398,6.49-2.398,8.328
			c0,1.462,0.688,2.734,2.086,3.842c1.377,1.109,4.387,3.241,8.996,3.576v1.177h-30.223V86.23c3.994-0.711,6.58-3.126,7.754-4.261
			c2.406-2.268,6.381-6.892,9.301-13.844L430.285,0.05L440.346,0l28.992,69.066c2.682,6.408,5.102,10.567,7.309,12.471
			c2.18,1.9,5.221,4.233,9.123,4.46v1.34h-37.762v-1.223c3.811-0.179,6.377-2.198,7.732-3.281c1.336-1.075,2.008-2.397,2.008-3.96
			c0-2.054-0.947-5.32-2.826-9.807L449.209,55.398z M447.041,50.179l-16.176-38.664l-16.729,38.664H447.041z"/>
	</g>
	<g>
		<path fill="#131313" d="M224.158,3.605c-1.847,1.134-3.259,2.879-4.248,5.208c-0.571,1.216-0.94,3.457-1.106,6.723
			c-0.167,3.274-0.331,6.763-0.486,10.484c-0.178,3.467-0.305,7.567-0.438,12.29c-0.127,4.716-0.191,9.788-0.191,15.191
			c0,2.264,0,4.85,0,7.752c0,2.827,0.027,5.712,0.064,8.659c0.046,2.951,0.066,5.875,0.066,8.78c0,2.909,0,5.538,0,7.878
			c0,0.323-1.684,0.347-1.97,0.323c-0.627-0.066-0.995-0.042-1.412-0.165c-0.628-0.191-0.929-0.301-1.731-1.137
			c-8.319-8.663-13.348-14.32-19.098-20.942c-5.757-6.622-11.238-12.942-16.452-18.958c-5.217-6.012-10.335-11.893-15.35-17.623
			c-5.006-5.735-10.308-11.666-15.899-17.795V61.41c0,4.128,0.104,7.839,0.314,11.154c0.21,3.306,0.724,5.78,1.542,7.395
			c0.903,1.85,2.316,3.254,4.241,4.173c1.927,0.935,4.586,1.598,7.963,2.009v1.197h-31.988V86.14
			c1.981-0.246,3.951-0.752,5.926-1.517c1.968-0.774,3.535-2.039,4.677-3.821c1.15-1.696,1.888-4.203,2.226-7.512
			c0.325-3.314,0.563-7.265,0.731-11.88c0.166-3.458,0.288-7.565,0.378-12.286c0.077-4.72,0.114-9.805,0.114-15.216
			c0-2.357,0-4.272,0-5.824c0-1.527,0-3.02,0-4.478c0-1.455,0-2.941,0-4.482c0-1.612-0.038-3.596-0.114-5.944
			c-0.255-2.349-0.828-4.259-1.736-5.75c-0.904-1.494-1.97-2.667-3.202-3.519c-1.23-0.842-2.563-1.457-4.007-1.819
			c-1.43-0.356-2.813-0.616-4.128-0.787V0.09h26.682l58.418,67.101V26.021c0-3.232-0.05-6.318-0.123-9.26
			c-0.086-2.959-0.45-5.274-1.116-6.984c-0.817-2.253-2.276-4.096-4.371-5.496c-2.096-1.411-5.115-2.402-9.051-2.976V0.09h32.213
			v1.214C228.469,1.719,226.011,2.479,224.158,3.605z"/>
	</g>
	<g>
		<path fill="#131313" d="M353.557,3.739c-1.845,1.123-3.265,2.851-4.245,5.208c-0.58,1.205-0.944,3.448-1.116,6.709
			c-0.162,3.278-0.324,6.773-0.488,10.482c-0.171,3.471-0.304,7.564-0.427,12.294c-0.131,4.73-0.193,9.788-0.193,15.207
			c0,2.238,0,4.834,0,7.753c0,2.813,0.025,5.695,0.062,8.651c0.039,2.954,0.066,5.87,0.066,8.772c0,2.905,0,5.531,0,7.876
			c0,0.327-1.688,0.352-1.961,0.327c-0.637-0.06-0.997-0.038-1.412-0.167c-0.631-0.191-0.947-0.298-1.736-1.134
			c-8.324-8.667-13.355-14.319-19.103-20.94c-5.753-6.627-11.236-12.947-16.451-18.962c-5.218-6.014-10.336-11.891-15.347-17.621
			c-5.014-5.72-10.313-11.66-15.902-17.804v51.143c0,4.125,0.104,7.839,0.307,11.157c0.207,3.32,0.717,5.775,1.545,7.397
			c0.896,1.853,2.316,3.241,4.248,4.176c1.934,0.926,4.59,1.596,7.949,1.992v1.217h-31.969v-1.217
			c1.977-0.234,3.938-0.743,5.905-1.521c1.979-0.762,3.539-2.025,4.685-3.812c1.158-1.689,1.9-4.192,2.219-7.508
			c0.343-3.316,0.574-7.268,0.745-11.88c0.156-3.465,0.288-7.568,0.372-12.294c0.075-4.725,0.123-9.799,0.123-15.207
			c0-2.346,0-4.28,0-5.812c0-1.54,0-3.037,0-4.485c0-1.452,0-2.948,0-4.496c0-1.611-0.048-3.59-0.123-5.935
			c-0.252-2.323-0.815-4.254-1.728-5.747c-0.901-1.5-1.967-2.67-3.206-3.514c-1.236-0.845-2.567-1.454-4.004-1.823
			c-1.437-0.353-2.808-0.629-4.127-0.792V0.225h26.669l58.426,67.09V26.139c0-3.224-0.046-6.308-0.12-9.264
			c-0.088-2.945-0.46-5.265-1.113-6.96c-0.833-2.261-2.289-4.094-4.39-5.517c-2.084-1.411-5.103-2.394-9.049-2.967V0.225h32.231
			V1.43C357.859,1.848,355.409,2.602,353.557,3.739z"/>
	</g>
</g>
</svg>
