<svg xmlns="http://www.w3.org/2000/svg"><symbol id="icon-check" viewBox="0 0 20 20"><path d="M7.984 15L4 11l2-2 2 2 6-6 2 2z"/></symbol><symbol id="icon-search" viewBox="0 0 24 24"><path d="M19.975 18.585l-3.398-3.399a6.959 6.959 0 0 0 1.399-4.187 6.998 6.998 0 1 0-13.994 0 6.998 6.998 0 0 0 6.997 6.999 6.952 6.952 0 0 0 4.184-1.399l3.398 3.399 1.414-1.413zm-8.996-2.586a5.005 5.005 0 0 1-4.998-5 5.004 5.004 0 0 1 4.998-4.998 5.004 5.004 0 0 1 4.998 4.998c0 2.757-2.242 5-4.998 5z"/></symbol><symbol id="icon-user" viewBox="0 0 24 24"><path class="st0" d="M5.979 20h-2a7.994 7.994 0 0 1 4.691-7.277C7.64 11.806 6.979 10.486 6.979 9a5 5 0 1 1 10 0c0 1.486-.661 2.807-1.691 3.723A7.995 7.995 0 0 1 19.979 20h-14zm6-14a3 3 0 1 0 0 6 3 3 0 0 0 0-6zm0 8c-2.609 0-4.806 1.675-5.633 4h11.265c-.826-2.325-3.023-4-5.632-4z"/></symbol><symbol id="icon-basket" viewBox="0 0 36 36"><path d="M27.965 15L22.429 4.508l-2.598 1.486L24.965 15h-14l5.133-8.989L13.5 4.49 7.965 15h-5v2.96h2L7.465 33h21l2.5-15.04h2V15h-5zm-2.042 15H10.006l-2-12.04h20.188L25.923 30z"/></symbol><symbol id="icon-heart" viewBox="0 0 24 24"><path d="M12.365 6.807a.507.507 0 0 1-.392.182.49.49 0 0 1-.383-.176C8.048 2.48 1.795 4.638 1.987 9.969c.153 4.242 3.16 6.345 6.7 9.329 1.888 1.591 4.713 1.601 6.606-.009 3.502-2.979 6.47-5.068 6.674-9.194.268-5.45-6.069-7.639-9.602-3.288zm1.606 11.036c-1.134.964-2.824.967-3.987-.013-3.593-3.028-5.879-4.634-5.998-7.928-.126-3.487 3.694-4.76 6.035-1.896.473.578 1.185.91 1.953.91.774 0 1.491-.336 1.966-.921 2.289-2.819 6.21-1.619 6.031 2.008-.161 3.227-2.536 4.892-6 7.84z"/></symbol></svg>