<svg id="Layer_1" xmlns="http://www.w3.org/2000/svg" width="485.77" height="87.474"><path fill="#131313" d="M65.334 55.398H28.023L21.54 70.415c-1.603 3.712-2.399 6.49-2.399 8.328 0 1.462.69 2.734 2.081 3.842 1.391 1.109 4.39 3.241 8.994 3.576v1.177H0V86.23c4.006-.711 6.585-3.126 7.763-4.261 2.398-2.268 6.373-6.892 9.298-13.844L46.417.05 56.469 0l28.99 69.066c2.682 6.408 5.107 10.567 7.292 12.471 2.19 1.9 5.237 4.233 9.146 4.46v1.34H64.133v-1.223c3.813-.179 6.384-2.198 7.713-3.281 1.352-1.075 2.022-2.397 2.022-3.96 0-2.054-.947-5.32-2.821-9.807l-5.713-13.668zm-2.168-5.219L46.988 11.515 30.264 50.179h32.902zm386.043 5.219H411.9l-6.482 15.017c-1.607 3.712-2.398 6.49-2.398 8.328 0 1.462.688 2.734 2.086 3.842 1.377 1.109 4.387 3.241 8.996 3.576v1.177h-30.223V86.23c3.994-.711 6.58-3.126 7.754-4.261 2.406-2.268 6.381-6.892 9.301-13.844L430.285.05 440.346 0l28.992 69.066c2.682 6.408 5.102 10.567 7.309 12.471 2.18 1.9 5.221 4.233 9.123 4.46v1.34h-37.762v-1.223c3.811-.179 6.377-2.198 7.732-3.281 1.336-1.075 2.008-2.397 2.008-3.96 0-2.054-.947-5.32-2.826-9.807l-5.713-13.668zm-2.168-5.219l-16.176-38.664-16.729 38.664h32.905zM224.158 3.605c-1.847 1.134-3.259 2.879-4.248 5.208-.571 1.216-.94 3.457-1.106 6.723-.167 3.274-.331 6.763-.486 10.484-.178 3.467-.305 7.567-.438 12.29a566.625 566.625 0 0 0-.191 15.191v7.752c0 2.827.027 5.712.064 8.659.046 2.951.066 5.875.066 8.78v7.878c0 .323-1.684.347-1.97.323-.627-.066-.995-.042-1.412-.165-.628-.191-.929-.301-1.731-1.137-8.319-8.663-13.348-14.32-19.098-20.942a16247.504 16247.504 0 0 1-16.452-18.958 5533.51 5533.51 0 0 0-15.35-17.623 1092.063 1092.063 0 0 0-15.899-17.795V61.41c0 4.128.104 7.839.314 11.154.21 3.306.724 5.78 1.542 7.395.903 1.85 2.316 3.254 4.241 4.173 1.927.935 4.586 1.598 7.963 2.009v1.197h-31.988V86.14c1.981-.246 3.951-.752 5.926-1.517 1.968-.774 3.535-2.039 4.677-3.821 1.15-1.696 1.888-4.203 2.226-7.512.325-3.314.563-7.265.731-11.88.166-3.458.288-7.565.378-12.286.077-4.72.114-9.805.114-15.216V19.124c0-1.612-.038-3.596-.114-5.944-.255-2.349-.828-4.259-1.736-5.75-.904-1.494-1.97-2.667-3.202-3.519a12.381 12.381 0 0 0-4.007-1.819 36.752 36.752 0 0 0-4.128-.787V.09h26.682l58.418 67.101v-41.17c0-3.232-.05-6.318-.123-9.26-.086-2.959-.45-5.274-1.116-6.984-.817-2.253-2.276-4.096-4.371-5.496-2.096-1.411-5.115-2.402-9.051-2.976V.09h32.213v1.214c-3.027.415-5.485 1.175-7.338 2.301zm129.399.134c-1.845 1.123-3.265 2.851-4.245 5.208-.58 1.205-.944 3.448-1.116 6.709-.162 3.278-.324 6.773-.488 10.482-.171 3.471-.304 7.564-.427 12.294-.131 4.73-.193 9.788-.193 15.207v7.753c0 2.813.025 5.695.062 8.651.039 2.954.066 5.87.066 8.772v7.876c0 .327-1.688.352-1.961.327-.637-.06-.997-.038-1.412-.167-.631-.191-.947-.298-1.736-1.134-8.324-8.667-13.355-14.319-19.103-20.94a39464.547 39464.547 0 0 1-16.451-18.962 5981.07 5981.07 0 0 0-15.347-17.621 1296.872 1296.872 0 0 0-15.902-17.804v51.143c0 4.125.104 7.839.307 11.157.207 3.32.717 5.775 1.545 7.397.896 1.853 2.316 3.241 4.248 4.176 1.934.926 4.59 1.596 7.949 1.992v1.217h-31.969v-1.217c1.977-.234 3.938-.743 5.905-1.521 1.979-.762 3.539-2.025 4.685-3.812 1.158-1.689 1.9-4.192 2.219-7.508.343-3.316.574-7.268.745-11.88.156-3.465.288-7.568.372-12.294.075-4.725.123-9.799.123-15.207V19.24c0-1.611-.048-3.59-.123-5.935-.252-2.323-.815-4.254-1.728-5.747-.901-1.5-1.967-2.67-3.206-3.514a12.588 12.588 0 0 0-4.004-1.823c-1.437-.353-2.808-.629-4.127-.792V.225h26.669l58.426 67.09V26.139c0-3.224-.046-6.308-.12-9.264-.088-2.945-.46-5.265-1.113-6.96-.833-2.261-2.289-4.094-4.39-5.517-2.084-1.411-5.103-2.394-9.049-2.967V.225h32.231V1.43c-3.04.418-5.49 1.172-7.342 2.309z"/></svg>